<svg xmlns="http://www.w3.org/2000/svg" fill="none" viewBox="0 0 34 34"><mask id="a" width="33" height="33" x="0" y="0" maskUnits="userSpaceOnUse" style="mask-type:luminance"><path fill="#fff" d="M30.3.9H3C1.8.9.7 1.9.7 3.3V30c0 1.3 1 2.4 2.4 2.4h27.2c1.3 0 2.3-1.1 2.3-2.4V3.3c0-1.3-1-2.4-2.3-2.4Z"/></mask><g mask="url(#a)"><path fill="#6DA544" d="M33.3 33.3H0V0h33.3v33.3Z"/><path fill="#FFDA44" d="m16.7 25.9 12.5-9.2-12.5-9.2-12.5 9.2 12.5 9.2Z"/><path fill="#F0F0F0" d="M16.7 11.4a5.3 5.3 0 1 1 0 10.5 5.3 5.3 0 0 1 0-10.5Z"/><path fill="#0052B4" d="M14 17c-.9 0-1.8-.1-2.6-.4a5.3 5.3 0 0 1 9.6-3 8.9 8.9 0 0 1-7 3.4ZM21.8 15.7l.1 1a5.3 5.3 0 0 1-10 2 10.9 10.9 0 0 0 10-3Z"/></g></svg>