<svg xmlns="http://www.w3.org/2000/svg" viewBox="0 0 512 512" fill="#333333"><path d="m306.6 252.3 33.1 33.1a88.8 88.8 0 0 0-113.1-113.1l33.1 33.1c25 1.8 45 21.9 46.9 46.9zM118.8 386.3a279.8 279.8 0 0 0 135.6 36.2h1.6c32.2.2 64.8-5.7 96-17.3l41 40.9a19 19 0 0 0 26.8 0 19 19 0 0 0 0-26.9L92.6 92a19 19 0 1 0-26.9 26.9l24.8 24.7a329 329 0 0 0-81.8 84 50.6 50.6 0 0 0 0 56.8 324.6 324.6 0 0 0 110.1 101.9zm134.7-79.6c-26-1.3-46.9-22.2-48.2-48.2zM40.2 248.9c21-31.1 47.5-57.7 77.6-78l54.8 54.8a88.8 88.8 0 0 0 113.7 113.7l35.7 35.8a230.8 230.8 0 0 1-64.3 9.3h-1.8c-40.2.3-81.2-10.6-118.6-31.4a286.4 286.4 0 0 1-97-90c-3-4.3-3-9.9 0-14.2z"/><path d="M503.3 227.6a324.6 324.6 0 0 0-110-101.9 279.9 279.9 0 0 0-135.6-36.2h-3.3c-31.4 0-63.1 5.8-93.6 17l30 30c21-6 42.4-9 63.6-9h1.7c40.2-.3 81.2 10.6 118.6 31.4 38.1 21.2 71.7 52.3 97 90 3 4.3 3 9.9 0 14.2a290 290 0 0 1-76.8 77.5l27.3 27.3a329 329 0 0 0 81-83.5 50.5 50.5 0 0 0 0-56.8z"/></svg>