<svg xmlns="http://www.w3.org/2000/svg" fill="#333333" viewBox="0 0 512 512"><path d="M256 167.3a88.8 88.8 0 0 0 0 177.4 88.8 88.8 0 0 0 0-177.4zm0 139.4a50.8 50.8 0 1 1 .1-101.6 50.8 50.8 0 0 1-.1 101.6z"/><path d="M503.3 227.6a324.4 324.4 0 0 0-110.1-101.9 279.8 279.8 0 0 0-135.6-36.2h-3.2c-46.2 0-93 12.5-135.6 36.2a324.6 324.6 0 0 0-110 102 50.6 50.6 0 0 0 0 56.7 324.4 324.4 0 0 0 110 101.9 279.8 279.8 0 0 0 135.6 36.2h1.6c46.7.3 94-12.2 137.2-36.2 43.2-24 81.3-59.3 110-101.9a50.5 50.5 0 0 0 0-56.8zm-31.5 35.5a286.4 286.4 0 0 1-97.1 90 241.7 241.7 0 0 1-117 31.4h-3.3c-39.7 0-80.1-10.8-117.1-31.4a286.4 286.4 0 0 1-97-90c-3-4.3-3-9.9 0-14.2 25.4-37.7 59-68.8 97-90 37-20.6 77.4-31.4 117-31.4h1.8c40.2-.3 81.2 10.6 118.6 31.4 38 21.2 71.6 52.3 97 90 3 4.3 3 9.9 0 14.2z"/></svg>