<svg xmlns="http://www.w3.org/2000/svg" fill="none" viewBox="0 0 33 33"><g clip-path="url(#a)"><rect width="30.4" height="29.9" x="1.3" y="2" fill="#fff" rx="2.6"/><mask id="b" width="31" height="32" x="1" y="1" maskUnits="userSpaceOnUse" style="mask-type:luminance"><path fill="#fff" d="M29.5 32.2h-26c-1.2 0-2.2-1-2.2-2.3V4.1c0-1.3 1-2.3 2.3-2.3h25.9c1.2 0 2.3 1 2.3 2.3v25.8c0 1.3-1 2.3-2.3 2.3Z"/></mask><g mask="url(#b)"><path fill="#D80027" d="M32.4 4.8H.6v4h31.8v-4ZM32.4 12.8H.6v4h31.8v-4ZM32.4 20.8H.6v4h31.8v-4ZM32.4 28.9H.6v4h31.8v-4Z"/><path fill="#2E52B2" d="M16.5.7H.6V18h16V.7Z"/><path fill="#F0F0F0" d="m3.8 8-.3 1H2.4l.9.7-.4 1.1 1-.7.9.7-.4-1 1-.7H4.1L3.8 8ZM4.2 13l-.4-1.1-.3 1H2.4l.9.7-.4 1.1 1-.7.9.7-.4-1 1-.7H4.1ZM3.8 4l-.3 1.2H2.4l.9.6L2.9 7l1-.7.9.7-.4-1 1-.7H4.1L3.8 4ZM8.6 8l-.4 1h-1l.8.7-.3 1.1.9-.7.9.7-.3-1L10 9H8.9L8.6 8ZM9 13l-.4-1.1-.4 1h-1l.8.7-.3 1.1.9-.7.9.7-.3-1 .9-.7H8.9ZM13.7 13l-.4-1.1-.3 1h-1.1l.9.7-.4 1.1 1-.7.8.7-.3-1 1-.7h-1.2ZM13.3 8 13 9h-1.1l.9.7-.4 1.1 1-.7.8.7-.3-1 1-.7h-1.2L13.3 8ZM8.6 4l-.4 1.2h-1l.8.6L7.7 7l.9-.7.9.7-.3-1 .9-.7H8.9L8.6 4ZM13.3 4 13 5.3h-1.1l.9.6-.4 1.1 1-.7.8.7-.3-1 1-.7h-1.2L13.3 4Z"/></g></g><defs><clipPath id="a"><path fill="#fff" d="M.6.6h32.2v32.2H.6z"/></clipPath></defs></svg>